<svg version="1.1" id="Layer_1" xmlns="http://www.w3.org/2000/svg" xmlns:xlink="http://www.w3.org/1999/xlink" x="0px" y="0px"
	 width="100%" viewBox="0 0 600 194" enable-background="new 0 0 600 194" xml:space="preserve">
<path fill="#000000" opacity="1.000000" stroke="none" 
	d="
M390.000000,195.000000 
	C260.040771,195.000000 130.581543,195.000000 1.061156,195.000000 
	C1.061156,130.394516 1.061156,65.788948 1.061156,1.091695 
	C200.875854,1.091695 400.751770,1.091695 600.813843,1.091695 
	C600.813843,65.666237 600.813843,130.333069 600.813843,195.000000 
	C530.789001,195.000000 460.644501,195.000000 390.000000,195.000000 
M510.004730,113.004539 
	C510.004730,113.004539 509.982635,112.988831 510.097595,112.270447 
	C513.631775,104.380669 517.122070,96.470871 520.711670,88.606384 
	C524.827087,79.589973 522.029419,74.785416 512.357361,73.866066 
	C510.847626,73.722557 508.513916,72.135094 508.262817,70.876007 
	C507.658905,67.847641 507.227631,65.047623 503.487488,65.095825 
	C499.596680,65.145966 495.271637,63.506546 492.888947,68.999329 
	C487.397308,81.659195 481.481628,94.138031 475.570862,106.611145 
	C474.021118,109.881508 471.860352,112.862335 469.980133,115.976112 
	C469.507935,115.709206 469.035736,115.442299 468.563538,115.175385 
	C470.292694,111.288719 471.902679,107.343353 473.781097,103.530205 
	C476.136688,98.748459 478.857422,94.158096 478.106934,88.442551 
	C477.974335,87.432701 478.883606,85.481773 479.649567,85.285797 
	C485.619598,83.758316 486.026489,79.230965 486.003326,74.346474 
	C485.974152,68.193008 484.420013,66.229767 479.348785,66.004158 
	C471.920013,65.673660 468.926941,67.651627 468.388184,73.593834 
	C468.122009,76.529762 468.341980,79.509766 468.341980,82.523323 
	C466.580200,83.073029 465.040741,83.553368 462.934845,84.210449 
	C464.508148,72.778900 458.076904,67.582024 447.958130,65.711525 
	C449.597046,61.918556 451.643311,59.101105 451.889618,56.134232 
	C452.207764,52.301750 452.399628,47.271408 450.284393,44.697701 
	C446.966827,40.661072 439.386169,43.004547 437.027985,48.033424 
	C433.157654,56.287045 429.512573,64.646301 426.295715,71.797745 
	C423.856110,70.427528 421.809509,68.527176 419.520508,68.166893 
	C416.011566,67.614586 412.067017,67.281036 410.115540,71.721100 
	C407.444946,77.797348 404.669769,83.828239 401.888123,89.854897 
	C398.751068,96.651543 395.721954,103.506348 392.311676,110.164673 
	C390.821198,113.074753 389.087952,116.466049 384.099609,115.425484 
	C387.893677,106.931107 391.626556,98.811752 395.149048,90.602112 
	C397.423676,85.300743 399.809113,79.981598 401.321686,74.445511 
	C402.105682,71.576027 402.635956,67.425240 398.238159,66.157814 
	C392.449951,64.489685 387.853424,66.059120 385.915741,70.261070 
	C380.561035,81.872757 375.487671,93.615952 370.011475,105.168953 
	C367.900085,109.623322 365.002075,113.704849 362.462433,117.956238 
	C361.715485,117.652138 360.968536,117.348038 360.221588,117.043938 
	C360.508057,115.308640 360.429260,113.405617 361.137238,111.863884 
	C368.555603,95.709541 376.253510,79.681641 383.502747,63.452873 
	C385.343750,59.331367 386.079315,54.661362 386.920654,50.168068 
	C387.442627,47.380421 386.661835,44.297440 383.236450,44.237350 
	C379.405060,44.170132 374.576782,41.913120 372.152496,47.163490 
	C363.860046,65.122574 355.717896,83.151337 347.367035,101.083038 
	C345.372986,105.364845 342.791962,109.373268 340.480896,113.507439 
	C339.960480,113.216934 339.440063,112.926422 338.919647,112.635918 
	C342.496948,104.657104 346.022095,96.654373 349.665314,88.705757 
	C353.833374,79.612038 351.097748,74.548859 341.486053,74.034874 
	C338.741364,73.888107 336.846008,73.157906 337.036285,70.058701 
	C337.267365,66.294739 335.235565,65.157852 331.869629,64.980743 
	C324.254181,64.580032 323.553314,65.163635 320.366638,72.278557 
	C314.656677,85.027306 308.770813,97.699432 302.765076,110.311508 
	C301.684692,112.580322 299.674683,114.406448 298.093872,116.436966 
	C297.680298,116.136780 297.266693,115.836601 296.853119,115.536415 
	C302.092773,104.644722 307.511597,93.833534 312.464020,82.812775 
	C313.969666,79.462204 314.454926,75.567390 314.927032,71.860657 
	C315.469116,67.604424 313.096466,65.746368 308.930908,66.001045 
	C305.142548,66.232651 301.246155,67.132561 297.584991,66.552834 
	C286.463989,64.791878 277.219849,67.221642 270.877411,76.324341 
	C269.320740,74.006859 268.178497,70.729851 265.874237,69.175865 
	C259.347565,64.774277 245.544601,65.782890 241.653320,72.324509 
	C234.503830,84.343513 227.469513,96.933922 223.532913,110.218323 
	C219.675781,123.234535 225.291306,130.545990 237.413483,132.369827 
	C242.905075,133.196091 248.791016,131.355835 254.503693,130.781036 
	C256.661377,130.563934 259.139465,129.761887 260.947540,130.503647 
	C268.047699,133.416519 275.028656,133.733627 282.324005,131.404785 
	C284.112091,130.833984 286.470612,130.892426 288.223450,131.561386 
	C297.727692,135.188705 307.907104,132.620407 314.015930,124.444557 
	C316.421234,121.225327 318.266968,117.587975 320.208160,114.402534 
	C321.153656,119.630470 322.089111,124.802765 323.004395,129.995514 
	C323.004395,129.995514 322.988556,130.017441 322.101349,130.008224 
	C320.935425,130.005646 319.769196,129.985809 318.603577,130.003403 
	C312.715149,130.092209 311.068970,131.854095 310.986969,137.889526 
	C310.907532,143.737534 313.557404,148.358017 317.155914,152.689743 
	C323.982056,160.906738 333.187531,164.387695 343.334503,165.526901 
	C357.041718,167.065796 370.061096,165.338593 381.761078,156.955750 
	C390.488953,150.702347 395.972473,142.299850 400.249573,132.769119 
	C402.748444,127.200867 405.561188,121.773476 408.241547,116.264610 
	C409.067841,119.876587 409.493195,123.143806 410.569305,126.180397 
	C414.012909,135.897491 437.234894,134.736588 443.192078,126.518524 
	C446.106415,122.498192 448.681854,118.232239 451.537994,113.883591 
	C451.964264,117.586235 451.744049,121.219841 452.866058,124.376350 
	C456.196259,133.745132 472.279144,136.681458 480.075226,129.252365 
	C484.081787,125.434402 487.288574,120.777138 490.895905,116.452248 
	C491.017883,118.051254 491.096954,119.983780 491.324432,121.898682 
	C491.947845,127.146629 495.538452,132.089005 500.433868,132.447617 
	C505.928955,132.850189 511.528748,131.871185 517.078735,131.438904 
	C518.195496,131.351913 519.378113,130.639404 520.386475,130.863281 
	C528.299988,132.620300 536.115356,132.999481 543.895142,130.139603 
	C544.803955,129.805527 546.131226,130.084152 547.089966,130.490463 
	C561.039856,136.402512 576.011230,129.885223 579.463379,115.397507 
	C581.721130,105.922447 580.103577,102.219078 569.685791,103.087578 
	C565.462891,103.439629 564.745605,107.125633 563.260437,109.927330 
	C561.773376,112.732590 560.445190,115.424721 555.895874,115.730247 
	C556.503235,113.886116 556.796021,112.502220 557.391724,111.264084 
	C564.022461,97.482430 570.908386,83.818573 577.268860,69.914085 
	C580.052429,63.829014 582.092468,57.348335 583.871399,50.882572 
	C584.757874,47.660767 584.360352,43.881493 579.782532,43.219875 
	C575.550842,42.608292 571.447388,42.563332 569.206360,47.477512 
	C566.720093,52.929207 563.713257,58.150017 561.367126,63.656303 
	C560.194824,66.407570 558.964722,66.701454 556.113281,66.368217 
	C543.949829,64.946724 534.253113,65.957520 527.405396,81.188431 
	C524.815552,86.949036 522.584595,92.901649 519.582581,98.437309 
	C516.820923,103.529694 513.243530,108.179695 510.004730,113.004539 
M82.386375,184.253418 
	C100.080917,188.302032 117.605865,188.037933 134.904190,182.165894 
	C148.839630,177.435394 160.994400,170.045700 170.775925,158.835266 
	C174.825974,154.193573 178.798645,149.785324 185.578522,147.972824 
	C192.632553,146.087021 199.286865,142.204376 205.660629,138.426666 
	C211.244690,135.116989 211.201935,130.054214 206.253235,125.873009 
	C202.320694,122.550385 198.164581,119.486809 194.319962,116.069458 
	C193.313385,115.174728 192.609146,113.393700 192.601654,112.015167 
	C192.568176,105.863472 192.948105,99.710640 192.976151,93.557289 
	C193.056229,75.984505 187.471603,60.016357 177.245743,46.083656 
	C152.462051,12.316020 114.518959,4.608300 77.449883,14.513641 
	C61.407551,18.800364 48.080025,28.066055 37.318565,41.038677 
	C28.754078,51.362919 22.748882,62.750877 19.808666,75.827461 
	C17.386076,86.601921 17.050220,97.382423 17.866137,108.417107 
	C19.326780,128.171249 26.890036,145.060028 40.085087,159.513474 
	C51.373978,171.878983 65.366089,179.895462 82.386375,184.253418 
M422.079742,158.081894 
	C423.495697,159.133789 424.762817,160.602371 426.351776,161.169861 
	C436.556854,164.814667 444.472046,158.181229 443.789246,146.704224 
	C443.369629,139.651947 441.452545,137.329803 435.784912,137.008835 
	C426.927795,136.507263 422.000671,139.131943 421.245514,145.508057 
	C420.787231,149.377136 421.522797,153.387634 422.079742,158.081894 
M399.266968,142.707581 
	C398.952759,146.634995 398.231201,150.582672 398.425415,154.484772 
	C398.679749,159.595245 404.329987,162.814835 410.515991,161.876862 
	C417.539185,160.811996 418.464783,159.457062 416.932343,152.015656 
	C415.198456,152.015656 413.386200,151.960007 411.578888,152.030716 
	C409.632355,152.106903 406.893707,152.777267 407.601776,149.652756 
	C407.895966,148.354645 410.532684,147.172440 412.300690,146.738861 
	C414.102875,146.296875 416.146484,146.839294 417.896515,146.939926 
	C418.310181,144.962051 419.189056,143.279053 418.807953,141.960068 
	C418.303375,140.213730 416.981232,137.549728 415.718109,137.373276 
	C409.792480,136.545593 403.608032,135.915131 399.266968,142.707581 
M498.078613,160.973099 
	C499.012054,160.086029 499.945496,159.198944 500.878937,158.311874 
	C498.832458,157.180328 496.785980,156.048798 495.224243,155.185257 
	C496.062958,155.082611 497.770966,154.873566 499.478943,154.664520 
	C499.457275,154.524033 499.435577,154.383560 499.413910,154.243073 
	C498.072144,154.051514 496.730377,153.859955 496.223724,153.787613 
	C497.577118,152.855362 499.243713,151.707352 500.910309,150.559357 
	C499.553589,149.370270 498.196899,148.181168 496.991516,147.124695 
	C500.459473,146.875656 503.875519,145.752258 503.454987,140.262405 
	C500.359741,140.085999 497.487579,139.922302 494.615387,139.758606 
	C494.637878,139.572784 494.660370,139.386963 494.682861,139.201126 
	C497.416687,139.019226 500.150482,138.837326 502.884277,138.655411 
	C498.073425,137.461670 493.082703,136.584686 488.770416,137.911942 
	C487.143951,138.412552 487.086884,144.013596 486.315826,147.289886 
	C486.239624,147.613571 486.160553,147.937378 486.104279,148.264832 
	C484.403381,158.157593 484.403839,158.157669 493.633820,159.784836 
	C491.237946,159.918854 488.842072,160.052872 486.446198,160.186874 
	C486.448883,160.456039 486.451599,160.725189 486.454285,160.994339 
	C490.030029,160.994339 493.605804,160.994339 498.078613,160.973099 
M478.238403,136.999863 
	C475.916168,137.005707 473.555939,136.766876 471.287415,137.118912 
	C470.124756,137.299332 468.357117,138.388672 468.178711,139.319443 
	C467.061554,145.148087 466.121552,151.030777 465.600983,156.937698 
	C465.489471,158.202637 467.169891,160.587311 468.327148,160.798340 
	C470.606873,161.214050 474.118713,162.083389 473.969482,157.641296 
	C473.872437,154.754562 475.294739,153.865784 477.939453,153.961838 
	C479.040680,154.001831 480.158661,153.581345 481.269043,153.370239 
	C481.240143,153.056351 481.211243,152.742477 481.182343,152.428589 
	C479.607727,152.162735 478.033142,151.896881 475.298279,151.435135 
	C478.146332,151.041733 479.737488,150.821945 481.114563,150.631744 
	C482.953644,146.517288 480.181366,145.928177 477.318970,145.285538 
	C478.349670,144.997574 479.291840,145.261124 479.954529,144.942841 
	C481.347382,144.273865 482.593536,143.299393 483.899902,142.450317 
	C482.556519,141.634735 481.300018,140.538834 479.843750,140.087448 
	C478.552887,139.687332 477.040009,140.003571 475.625122,140.003571 
	C475.635559,139.723297 475.645966,139.443024 475.656403,139.162750 
	C478.150055,139.024200 480.643677,138.885666 483.137329,138.747116 
	C483.152893,138.314316 483.168457,137.881531 483.184021,137.448730 
	C481.832642,137.299210 480.481232,137.149704 478.238403,136.999863 
M447.957153,160.974777 
	C451.569550,161.326553 454.633728,161.118195 454.772247,156.205688 
	C454.793732,155.443405 456.839020,154.600296 458.063995,154.053452 
	C459.044403,153.615814 460.200256,153.571289 461.278259,153.352310 
	C461.233673,153.044647 461.189087,152.736984 461.144501,152.429321 
	C459.607666,152.153641 458.070831,151.877975 457.296265,151.739029 
	C458.657959,150.881851 460.268585,149.867996 461.879211,148.854141 
	C460.556946,147.571396 459.234680,146.288651 458.067444,145.156326 
	C459.887573,145.016418 462.130463,144.843994 464.593231,144.654678 
	C464.494843,142.954620 464.421783,141.692444 464.337067,140.229080 
	C461.203918,140.075211 458.305450,139.932861 455.406982,139.790512 
	C455.405304,139.610489 455.403625,139.430466 455.401947,139.250443 
	C458.326324,139.034943 461.250702,138.819458 464.175079,138.603958 
	C464.139282,138.070511 464.103516,137.537048 464.067719,137.003601 
	C460.346375,137.003601 456.619202,137.133316 452.905273,136.966965 
	C449.215881,136.801727 447.743927,138.420578 447.963501,142.017715 
	C448.042725,143.315659 447.578613,144.637848 447.552734,145.952713 
	C447.454926,150.921036 447.435303,155.890915 447.957153,160.974777 
M522.781311,141.529755 
	C518.006470,141.095291 513.234009,140.625427 508.452179,140.291550 
	C508.057068,140.263947 507.298096,141.110092 507.214661,141.631332 
	C506.430359,146.531143 505.706818,151.442581 505.108398,156.368011 
	C505.026489,157.042038 505.708649,158.431915 506.067505,158.442352 
	C510.886627,158.582382 515.711121,158.536148 520.534302,158.536148 
	C520.577881,157.899948 520.621460,157.263748 520.664978,156.627533 
	C518.571594,156.298233 516.478149,155.968933 514.384766,155.639618 
	C514.383850,155.478714 514.382996,155.317810 514.382141,155.156906 
	C516.128784,155.058731 517.875427,154.960541 519.622131,154.862350 
	C519.627869,154.673523 519.633667,154.484695 519.639404,154.295868 
	C517.919434,154.084396 516.199402,153.872940 514.479431,153.661469 
	C514.501099,153.516861 514.522705,153.372238 514.544373,153.227631 
	C516.469971,153.035995 518.395569,152.844360 520.383301,152.646545 
	C520.383301,151.059341 520.383301,149.787247 520.383301,148.409836 
	C518.648926,148.136353 517.080139,147.888992 515.511353,147.641617 
	C519.029846,147.080063 522.421448,146.859879 522.781311,141.529755 
M519.858521,137.010696 
	C515.950867,137.010696 512.043213,137.010696 508.135529,137.010696 
	C508.144775,137.631119 508.154022,138.251526 508.163239,138.871948 
	C512.459717,138.871948 516.756226,138.871948 521.052734,138.871948 
	C520.922241,138.263992 520.791809,137.656036 519.858521,137.010696 
z"/>
<path fill="#1D1E1B" opacity="1.000000" stroke="none" 
	d="
M323.024567,129.975067 
	C322.089111,124.802765 321.153656,119.630470 320.208160,114.402534 
	C318.266968,117.587975 316.421234,121.225327 314.015930,124.444557 
	C307.907104,132.620407 297.727692,135.188705 288.223450,131.561386 
	C286.470612,130.892426 284.112091,130.833984 282.324005,131.404785 
	C275.028656,133.733627 268.047699,133.416519 260.947540,130.503647 
	C259.139465,129.761887 256.661377,130.563934 254.503693,130.781036 
	C248.791016,131.355835 242.905075,133.196091 237.413483,132.369827 
	C225.291306,130.545990 219.675781,123.234535 223.532913,110.218323 
	C227.469513,96.933922 234.503830,84.343513 241.653320,72.324509 
	C245.544601,65.782890 259.347565,64.774277 265.874237,69.175865 
	C268.178497,70.729851 269.320740,74.006859 270.877411,76.324341 
	C277.219849,67.221642 286.463989,64.791878 297.584991,66.552834 
	C301.246155,67.132561 305.142548,66.232651 308.930908,66.001045 
	C313.096466,65.746368 315.469116,67.604424 314.927032,71.860657 
	C314.454926,75.567390 313.969666,79.462204 312.464020,82.812775 
	C307.511597,93.833534 302.092773,104.644722 296.853119,115.536415 
	C297.266693,115.836601 297.680298,116.136780 298.093872,116.436966 
	C299.674683,114.406448 301.684692,112.580322 302.765076,110.311508 
	C308.770813,97.699432 314.656677,85.027306 320.366638,72.278557 
	C323.553314,65.163635 324.254181,64.580032 331.869629,64.980743 
	C335.235565,65.157852 337.267365,66.294739 337.036285,70.058701 
	C336.846008,73.157906 338.741364,73.888107 341.486053,74.034874 
	C351.097748,74.548859 353.833374,79.612038 349.665314,88.705757 
	C346.022095,96.654373 342.496948,104.657104 338.919647,112.635918 
	C339.440063,112.926422 339.960480,113.216934 340.480896,113.507439 
	C342.791962,109.373268 345.372986,105.364845 347.367035,101.083038 
	C355.717896,83.151337 363.860046,65.122574 372.152496,47.163490 
	C374.576782,41.913120 379.405060,44.170132 383.236450,44.237350 
	C386.661835,44.297440 387.442627,47.380421 386.920654,50.168068 
	C386.079315,54.661362 385.343750,59.331367 383.502747,63.452873 
	C376.253510,79.681641 368.555603,95.709541 361.137238,111.863884 
	C360.429260,113.405617 360.508057,115.308640 360.221588,117.043938 
	C360.968536,117.348038 361.715485,117.652138 362.462433,117.956238 
	C365.002075,113.704849 367.900085,109.623322 370.011475,105.168953 
	C375.487671,93.615952 380.561035,81.872757 385.915741,70.261070 
	C387.853424,66.059120 392.449951,64.489685 398.238159,66.157814 
	C402.635956,67.425240 402.105682,71.576027 401.321686,74.445511 
	C399.809113,79.981598 397.423676,85.300743 395.149048,90.602112 
	C391.626556,98.811752 387.893677,106.931107 384.099609,115.425484 
	C389.087952,116.466049 390.821198,113.074753 392.311676,110.164673 
	C395.721954,103.506348 398.751068,96.651543 401.888123,89.854897 
	C404.669769,83.828239 407.444946,77.797348 410.115540,71.721100 
	C412.067017,67.281036 416.011566,67.614586 419.520508,68.166893 
	C421.809509,68.527176 423.856110,70.427528 426.295715,71.797745 
	C429.512573,64.646301 433.157654,56.287045 437.027985,48.033424 
	C439.386169,43.004547 446.966827,40.661072 450.284393,44.697701 
	C452.399628,47.271408 452.207764,52.301750 451.889618,56.134232 
	C451.643311,59.101105 449.597046,61.918556 447.958130,65.711525 
	C458.076904,67.582024 464.508148,72.778900 462.934845,84.210449 
	C465.040741,83.553368 466.580200,83.073029 468.341980,82.523323 
	C468.341980,79.509766 468.122009,76.529762 468.388184,73.593834 
	C468.926941,67.651627 471.920013,65.673660 479.348785,66.004158 
	C484.420013,66.229767 485.974152,68.193008 486.003326,74.346474 
	C486.026489,79.230965 485.619598,83.758316 479.649567,85.285797 
	C478.883606,85.481773 477.974335,87.432701 478.106934,88.442551 
	C478.857422,94.158096 476.136688,98.748459 473.781097,103.530205 
	C471.902679,107.343353 470.292694,111.288719 468.563538,115.175385 
	C469.035736,115.442299 469.507935,115.709206 469.980133,115.976112 
	C471.860352,112.862335 474.021118,109.881508 475.570862,106.611145 
	C481.481628,94.138031 487.397308,81.659195 492.888947,68.999329 
	C495.271637,63.506546 499.596680,65.145966 503.487488,65.095825 
	C507.227631,65.047623 507.658905,67.847641 508.262817,70.876007 
	C508.513916,72.135094 510.847626,73.722557 512.357361,73.866066 
	C522.029419,74.785416 524.827087,79.589973 520.711670,88.606384 
	C517.122070,96.470871 513.631775,104.380669 509.824982,112.799355 
	C509.274048,113.958122 508.995728,114.587990 508.717407,115.217850 
	C508.961426,115.299744 509.205414,115.381638 509.449402,115.463531 
	C509.641418,114.650543 509.833435,113.837555 510.025452,113.024567 
	C513.243530,108.179695 516.820923,103.529694 519.582581,98.437309 
	C522.584595,92.901649 524.815552,86.949036 527.405396,81.188431 
	C534.253113,65.957520 543.949829,64.946724 556.113281,66.368217 
	C558.964722,66.701454 560.194824,66.407570 561.367126,63.656303 
	C563.713257,58.150017 566.720093,52.929207 569.206360,47.477512 
	C571.447388,42.563332 575.550842,42.608292 579.782532,43.219875 
	C584.360352,43.881493 584.757874,47.660767 583.871399,50.882572 
	C582.092468,57.348335 580.052429,63.829014 577.268860,69.914085 
	C570.908386,83.818573 564.022461,97.482430 557.391724,111.264084 
	C556.796021,112.502220 556.503235,113.886116 555.895874,115.730247 
	C560.445190,115.424721 561.773376,112.732590 563.260437,109.927330 
	C564.745605,107.125633 565.462891,103.439629 569.685791,103.087578 
	C580.103577,102.219078 581.721130,105.922447 579.463379,115.397507 
	C576.011230,129.885223 561.039856,136.402512 547.089966,130.490463 
	C546.131226,130.084152 544.803955,129.805527 543.895142,130.139603 
	C536.115356,132.999481 528.299988,132.620300 520.386475,130.863281 
	C519.378113,130.639404 518.195496,131.351913 517.078735,131.438904 
	C511.528748,131.871185 505.928955,132.850189 500.433868,132.447617 
	C495.538452,132.089005 491.947845,127.146629 491.324432,121.898682 
	C491.096954,119.983780 491.017883,118.051254 490.895905,116.452248 
	C487.288574,120.777138 484.081787,125.434402 480.075226,129.252365 
	C472.279144,136.681458 456.196259,133.745132 452.866058,124.376350 
	C451.744049,121.219841 451.964264,117.586235 451.537994,113.883591 
	C448.681854,118.232239 446.106415,122.498192 443.192078,126.518524 
	C437.234894,134.736588 414.012909,135.897491 410.569305,126.180397 
	C409.493195,123.143806 409.067841,119.876587 408.241547,116.264610 
	C405.561188,121.773476 402.748444,127.200867 400.249573,132.769119 
	C395.972473,142.299850 390.488953,150.702347 381.761078,156.955750 
	C370.061096,165.338593 357.041718,167.065796 343.334503,165.526901 
	C333.187531,164.387695 323.982056,160.906738 317.155914,152.689743 
	C313.557404,148.358017 310.907532,143.737534 310.986969,137.889526 
	C311.068970,131.854095 312.715149,130.092209 318.603577,130.003403 
	C319.769196,129.985809 320.935425,130.005646 322.664490,130.176041 
	C323.480957,130.398758 323.734314,130.453659 323.987671,130.508560 
	C323.666626,130.330719 323.345612,130.152893 323.024567,129.975067 
M330.241943,141.224426 
	C348.308929,159.701050 373.666199,147.054550 379.975555,132.436462 
	C376.644257,130.359726 373.522064,130.785019 369.767456,131.982193 
	C365.509491,133.339874 360.557434,134.092651 356.243469,133.293274 
	C351.187805,132.356491 346.863678,130.487244 341.279236,132.567947 
	C336.964508,134.175568 331.571350,132.888733 325.614685,132.888733 
	C327.120178,135.647980 328.476257,138.133362 330.241943,141.224426 
M545.284729,84.741974 
	C540.149841,95.165520 535.014954,105.589066 529.573853,116.634308 
	C536.491638,115.719383 550.095703,92.885681 551.180603,81.563812 
	C549.098145,82.598503 547.454773,83.415001 545.284729,84.741974 
M437.962708,87.571342 
	C433.636230,97.088623 429.309784,106.605904 424.983307,116.123177 
	C425.453979,116.499466 425.924622,116.875755 426.395294,117.252045 
	C428.068268,116.138992 430.456024,115.411453 431.298096,113.850227 
	C436.720184,103.797478 442.304047,93.784180 446.209137,83.036560 
	C445.600769,82.534081 444.992401,82.031601 444.384033,81.529121 
	C442.389679,83.343552 440.395355,85.157990 437.962708,87.571342 
M279.840576,111.266693 
	C284.305786,101.897804 288.770996,92.528923 293.420319,82.773796 
	C288.005615,81.424980 286.193420,84.814941 284.756073,87.725166 
	C280.492981,96.356720 276.588501,105.166451 272.626678,113.943901 
	C272.294464,114.679932 272.582764,115.696030 272.582764,118.349625 
	C275.586060,115.525917 277.518951,113.708603 279.840576,111.266693 
M251.859772,113.466927 
	C253.635040,111.456444 255.410294,109.445953 257.910797,106.614143 
	C252.000366,107.202454 247.688461,107.268410 243.581894,108.220238 
	C241.952530,108.597900 240.323181,110.739235 239.560196,112.461433 
	C239.064392,113.580505 239.681427,116.149521 240.613770,116.706474 
	C241.827545,117.431557 243.953537,117.149620 245.495316,116.676514 
	C247.509720,116.058380 249.336594,114.829079 251.859772,113.466927 
z"/>
<path fill="#1E1F1C" opacity="1.000000" stroke="none" 
	d="
M81.987335,184.137604 
	C65.366089,179.895462 51.373978,171.878983 40.085087,159.513474 
	C26.890036,145.060028 19.326780,128.171249 17.866137,108.417107 
	C17.050220,97.382423 17.386076,86.601921 19.808666,75.827461 
	C22.748882,62.750877 28.754078,51.362919 37.318565,41.038677 
	C48.080025,28.066055 61.407551,18.800364 77.449883,14.513641 
	C114.518959,4.608300 152.462051,12.316020 177.245743,46.083656 
	C187.471603,60.016357 193.056229,75.984505 192.976151,93.557289 
	C192.948105,99.710640 192.568176,105.863472 192.601654,112.015167 
	C192.609146,113.393700 193.313385,115.174728 194.319962,116.069458 
	C198.164581,119.486809 202.320694,122.550385 206.253235,125.873009 
	C211.201935,130.054214 211.244690,135.116989 205.660629,138.426666 
	C199.286865,142.204376 192.632553,146.087021 185.578522,147.972824 
	C178.798645,149.785324 174.825974,154.193573 170.775925,158.835266 
	C160.994400,170.045700 148.839630,177.435394 134.904190,182.165894 
	C117.605865,188.037933 100.080917,188.302032 81.987335,184.137604 
M58.689606,63.874607 
	C72.574432,55.217163 86.773720,52.210587 101.557632,62.108212 
	C102.705711,56.834099 100.371307,53.867752 96.705215,51.586285 
	C84.363846,43.906059 64.118378,50.445473 57.728752,63.978554 
	C57.816021,63.975254 57.903290,63.971954 58.689606,63.874607 
M98.744087,155.365646 
	C104.161041,155.238983 109.578003,155.112320 115.822762,155.042633 
	C124.431320,153.703583 132.511322,151.069550 139.818665,145.550095 
	C117.740105,138.588654 105.902428,123.297127 102.516838,101.425438 
	C101.254807,93.272461 101.202332,84.802574 101.710365,76.545624 
	C102.129662,69.730888 98.889961,66.288757 93.462425,64.006882 
	C84.743416,60.341183 76.136902,61.427929 67.915916,65.590401 
	C53.836807,72.718979 46.410038,86.402283 47.799980,102.143822 
	C50.332554,130.826019 71.630997,153.282318 98.744087,155.365646 
M35.118744,72.746719 
	C28.150644,89.892227 28.018703,107.196449 35.183125,124.155602 
	C44.538582,146.301224 61.111328,161.181946 83.512093,169.681549 
	C89.252403,171.859604 89.893044,171.470108 91.135544,164.666306 
	C89.124184,164.117676 87.079384,163.555847 85.032356,163.002228 
	C67.418594,158.238510 54.121441,148.085007 45.838486,131.650955 
	C36.474529,113.072113 35.105022,93.498451 41.030388,73.981377 
	C48.307564,50.011673 64.129814,36.230618 90.638268,39.099911 
	C97.937920,39.890030 105.426033,42.094933 108.869095,48.878147 
	C111.939049,54.926304 117.089653,57.212456 122.194336,59.971622 
	C125.152222,61.570412 126.961632,63.383163 126.935432,66.792694 
	C126.908981,70.233337 125.578979,72.698128 122.362068,74.380363 
	C118.624237,76.335022 115.131294,78.757965 110.608292,81.547363 
	C134.945633,88.300461 157.855270,95.373756 180.011047,107.115135 
	C180.262405,103.026665 180.971069,99.582527 180.599121,96.259346 
	C177.855591,71.747902 167.492493,51.468075 146.745056,37.310898 
	C130.991638,26.561438 113.736679,20.667618 94.558456,24.435802 
	C66.682846,29.912874 46.783047,45.783607 35.118744,72.746719 
M118.225204,123.223770 
	C120.292427,125.527054 122.359657,127.830330 124.522415,130.240051 
	C135.276855,123.607651 140.810974,114.346191 142.724152,101.871841 
	C131.300659,98.405518 120.118011,95.012268 108.305779,91.427986 
	C108.747375,103.304207 111.457199,113.512421 118.225204,123.223770 
M142.787857,118.100304 
	C138.610947,123.369011 134.434052,128.637711 129.701019,134.607910 
	C134.848160,136.320358 140.261459,138.225174 145.755356,139.859070 
	C146.817276,140.174881 148.617493,139.854324 149.360779,139.110992 
	C157.106201,131.365234 163.127884,122.639053 164.560394,110.981804 
	C158.901596,108.599594 153.464447,106.310684 148.114624,104.058540 
	C146.331314,108.809731 144.715515,113.114662 142.787857,118.100304 
M166.813324,122.131836 
	C163.168854,128.361862 159.524384,134.591888 155.677338,141.168198 
	C169.922440,141.809677 183.405579,139.449860 197.047455,131.460770 
	C187.442093,124.915337 178.798050,119.024986 169.685608,112.815453 
	C168.507996,116.646233 167.778397,119.019615 166.813324,122.131836 
M115.959877,172.810196 
	C120.835144,172.454300 122.504608,168.779388 124.784248,164.441925 
	C120.873627,164.653534 117.699944,164.942230 114.523689,164.974106 
	C106.615784,165.053452 106.041519,165.466827 103.845917,174.085678 
	C107.757591,173.686356 111.444519,173.309998 115.959877,172.810196 
M143.613403,156.166351 
	C138.661011,159.083313 138.545822,159.322266 140.471329,164.452744 
	C145.996399,160.334641 151.284988,156.392807 157.195160,151.987671 
	C150.737289,149.328842 147.964142,153.862549 143.613403,156.166351 
M108.177101,64.127464 
	C108.177101,66.634048 108.177101,69.140625 108.177101,72.361229 
	C111.476479,70.437660 113.920502,69.012779 117.640259,66.844131 
	C113.669075,65.339241 111.027763,64.338318 108.177101,64.127464 
z"/>
<path fill="#1D1E1B" opacity="1.000000" stroke="none" 
	d="
M421.900879,157.708252 
	C421.522797,153.387634 420.787231,149.377136 421.245514,145.508057 
	C422.000671,139.131943 426.927795,136.507263 435.784912,137.008835 
	C441.452545,137.329803 443.369629,139.651947 443.789246,146.704224 
	C444.472046,158.181229 436.556854,164.814667 426.351776,161.169861 
	C424.762817,160.602371 423.495697,159.133789 421.900879,157.708252 
M432.603546,151.847534 
	C433.221924,150.334122 433.840332,148.820724 434.458740,147.307312 
	C433.758850,147.055191 432.635101,146.401657 432.430054,146.618179 
	C431.357422,147.750824 430.427338,149.058044 429.720520,150.443726 
	C429.639191,150.603165 431.254059,151.627808 432.603546,151.847534 
z"/>
<path fill="#1D1E1B" opacity="1.000000" stroke="none" 
	d="
M399.438110,142.396210 
	C403.608032,135.915131 409.792480,136.545593 415.718109,137.373276 
	C416.981232,137.549728 418.303375,140.213730 418.807953,141.960068 
	C419.189056,143.279053 418.310181,144.962051 417.896515,146.939926 
	C416.146484,146.839294 414.102875,146.296875 412.300690,146.738861 
	C410.532684,147.172440 407.895966,148.354645 407.601776,149.652756 
	C406.893707,152.777267 409.632355,152.106903 411.578888,152.030716 
	C413.386200,151.960007 415.198456,152.015656 416.932343,152.015656 
	C418.464783,159.457062 417.539185,160.811996 410.515991,161.876862 
	C404.329987,162.814835 398.679749,159.595245 398.425415,154.484772 
	C398.231201,150.582672 398.952759,146.634995 399.438110,142.396210 
z"/>
<path fill="#1D1E1B" opacity="1.000000" stroke="none" 
	d="
M497.630066,160.983719 
	C493.605804,160.994339 490.030029,160.994339 486.454285,160.994339 
	C486.451599,160.725189 486.448883,160.456039 486.446198,160.186874 
	C488.842072,160.052872 491.237946,159.918854 493.633820,159.784836 
	C484.403839,158.157669 484.403381,158.157593 486.104279,148.264832 
	C486.160553,147.937378 486.239624,147.613571 486.315826,147.289886 
	C487.086884,144.013596 487.143951,138.412552 488.770416,137.911942 
	C493.082703,136.584686 498.073425,137.461670 502.884277,138.655411 
	C500.150482,138.837326 497.416687,139.019226 494.682861,139.201126 
	C494.660370,139.386963 494.637878,139.572784 494.615387,139.758606 
	C497.487579,139.922302 500.359741,140.085999 503.454987,140.262405 
	C503.875519,145.752258 500.459473,146.875656 496.991516,147.124695 
	C498.196899,148.181168 499.553589,149.370270 500.910309,150.559357 
	C499.243713,151.707352 497.577118,152.855362 496.223724,153.787613 
	C496.730377,153.859955 498.072144,154.051514 499.413910,154.243073 
	C499.435577,154.383560 499.457275,154.524033 499.478943,154.664520 
	C497.770966,154.873566 496.062958,155.082611 495.224243,155.185257 
	C496.785980,156.048798 498.832458,157.180328 500.878937,158.311859 
	C499.945496,159.198944 499.012054,160.086029 497.630066,160.983719 
z"/>
<path fill="#1D1E1B" opacity="1.000000" stroke="none" 
	d="
M478.684113,137.000031 
	C480.481232,137.149704 481.832642,137.299210 483.184021,137.448730 
	C483.168457,137.881531 483.152893,138.314316 483.137329,138.747116 
	C480.643677,138.885666 478.150055,139.024200 475.656403,139.162750 
	C475.645966,139.443024 475.635559,139.723297 475.625122,140.003571 
	C477.040009,140.003571 478.552887,139.687332 479.843750,140.087448 
	C481.300018,140.538834 482.556519,141.634735 483.899902,142.450317 
	C482.593536,143.299393 481.347382,144.273865 479.954529,144.942841 
	C479.291840,145.261124 478.349670,144.997574 477.318970,145.285538 
	C480.181366,145.928177 482.953644,146.517288 481.114563,150.631744 
	C479.737488,150.821945 478.146332,151.041733 475.298279,151.435135 
	C478.033142,151.896881 479.607727,152.162735 481.182343,152.428589 
	C481.211243,152.742477 481.240143,153.056351 481.269043,153.370239 
	C480.158661,153.581345 479.040680,154.001831 477.939453,153.961838 
	C475.294739,153.865784 473.872437,154.754562 473.969482,157.641296 
	C474.118713,162.083389 470.606873,161.214050 468.327148,160.798340 
	C467.169891,160.587311 465.489471,158.202637 465.600983,156.937698 
	C466.121552,151.030777 467.061554,145.148087 468.178711,139.319443 
	C468.357117,138.388672 470.124756,137.299332 471.287415,137.118912 
	C473.555939,136.766876 475.916168,137.005707 478.684113,137.000031 
z"/>
<path fill="#1D1E1B" opacity="1.000000" stroke="none" 
	d="
M447.671814,160.917480 
	C447.435303,155.890915 447.454926,150.921036 447.552734,145.952713 
	C447.578613,144.637848 448.042725,143.315659 447.963501,142.017715 
	C447.743927,138.420578 449.215881,136.801727 452.905273,136.966965 
	C456.619202,137.133316 460.346375,137.003601 464.067719,137.003601 
	C464.103516,137.537048 464.139282,138.070511 464.175079,138.603958 
	C461.250702,138.819458 458.326324,139.034943 455.401947,139.250443 
	C455.403625,139.430466 455.405304,139.610489 455.406982,139.790512 
	C458.305450,139.932861 461.203918,140.075211 464.337067,140.229080 
	C464.421783,141.692444 464.494843,142.954620 464.593231,144.654678 
	C462.130463,144.843994 459.887573,145.016418 458.067444,145.156326 
	C459.234680,146.288651 460.556946,147.571396 461.879211,148.854141 
	C460.268585,149.867996 458.657959,150.881851 457.296265,151.739029 
	C458.070831,151.877975 459.607666,152.153641 461.144501,152.429321 
	C461.189087,152.736984 461.233673,153.044647 461.278259,153.352310 
	C460.200256,153.571289 459.044403,153.615814 458.063995,154.053452 
	C456.839020,154.600296 454.793732,155.443405 454.772247,156.205688 
	C454.633728,161.118195 451.569550,161.326553 447.671814,160.917480 
z"/>
<path fill="#1D1E1B" opacity="1.000000" stroke="none" 
	d="
M522.845459,141.930511 
	C522.421448,146.859879 519.029846,147.080063 515.511353,147.641617 
	C517.080139,147.888992 518.648926,148.136353 520.383301,148.409836 
	C520.383301,149.787247 520.383301,151.059341 520.383301,152.646545 
	C518.395569,152.844360 516.469971,153.035995 514.544373,153.227631 
	C514.522705,153.372238 514.501099,153.516861 514.479431,153.661469 
	C516.199402,153.872940 517.919434,154.084396 519.639404,154.295868 
	C519.633667,154.484695 519.627869,154.673523 519.622131,154.862350 
	C517.875427,154.960541 516.128784,155.058731 514.382141,155.156906 
	C514.382996,155.317810 514.383850,155.478714 514.384766,155.639618 
	C516.478149,155.968933 518.571594,156.298233 520.664978,156.627533 
	C520.621460,157.263748 520.577881,157.899948 520.534302,158.536148 
	C515.711121,158.536148 510.886627,158.582382 506.067505,158.442352 
	C505.708649,158.431915 505.026489,157.042038 505.108398,156.368011 
	C505.706818,151.442581 506.430359,146.531143 507.214661,141.631332 
	C507.298096,141.110092 508.057068,140.263947 508.452179,140.291550 
	C513.234009,140.625427 518.006470,141.095291 522.845459,141.930511 
z"/>
<path fill="#1D1E1B" opacity="1.000000" stroke="none" 
	d="
M520.259888,137.029388 
	C520.791809,137.656036 520.922241,138.263992 521.052734,138.871948 
	C516.756226,138.871948 512.459717,138.871948 508.163239,138.871948 
	C508.154022,138.251526 508.144775,137.631119 508.135529,137.010696 
	C512.043213,137.010696 515.950867,137.010696 520.259888,137.029388 
z"/>
<path fill="#000000" opacity="1.000000" stroke="none" 
	d="
M330.037170,140.921600 
	C328.476257,138.133362 327.120178,135.647980 325.614685,132.888733 
	C331.571350,132.888733 336.964508,134.175568 341.279236,132.567947 
	C346.863678,130.487244 351.187805,132.356491 356.243469,133.293274 
	C360.557434,134.092651 365.509491,133.339874 369.767456,131.982193 
	C373.522064,130.785019 376.644257,130.359726 379.975494,132.438782 
	C373.666199,147.054550 348.308929,159.701050 330.037170,140.921600 
z"/>
<path fill="#000000" opacity="1.000000" stroke="none" 
	d="
M545.548096,84.486740 
	C547.454773,83.415001 549.098145,82.598503 551.180603,81.563812 
	C550.095703,92.885681 536.491638,115.719383 529.573853,116.634308 
	C535.014954,105.589066 540.149841,95.165520 545.548096,84.486740 
z"/>
<path fill="#000000" opacity="1.000000" stroke="none" 
	d="
M438.181854,87.271881 
	C440.395355,85.157990 442.389679,83.343552 444.384033,81.529121 
	C444.992401,82.031601 445.600769,82.534081 446.209137,83.036560 
	C442.304047,93.784180 436.720184,103.797478 431.298096,113.850227 
	C430.456024,115.411453 428.068268,116.138992 426.395294,117.252045 
	C425.924622,116.875755 425.453979,116.499466 424.983307,116.123177 
	C429.309784,106.605904 433.636230,97.088623 438.181854,87.271881 
z"/>
<path fill="#000000" opacity="1.000000" stroke="none" 
	d="
M279.646210,111.578995 
	C277.518951,113.708603 275.586060,115.525917 272.582764,118.349625 
	C272.582764,115.696030 272.294464,114.679932 272.626678,113.943901 
	C276.588501,105.166451 280.492981,96.356720 284.756073,87.725166 
	C286.193420,84.814941 288.005615,81.424980 293.420319,82.773796 
	C288.770996,92.528923 284.305786,101.897804 279.646210,111.578995 
z"/>
<path fill="#000000" opacity="1.000000" stroke="none" 
	d="
M251.551956,113.664818 
	C249.336594,114.829079 247.509720,116.058380 245.495316,116.676514 
	C243.953537,117.149620 241.827545,117.431557 240.613770,116.706474 
	C239.681427,116.149521 239.064392,113.580505 239.560196,112.461433 
	C240.323181,110.739235 241.952530,108.597900 243.581894,108.220238 
	C247.688461,107.268410 252.000366,107.202454 257.910797,106.614143 
	C255.410294,109.445953 253.635040,111.456444 251.551956,113.664818 
z"/>
<path fill="#000000" opacity="1.000000" stroke="none" 
	d="
M510.015076,113.014557 
	C509.833435,113.837555 509.641418,114.650543 509.449402,115.463531 
	C509.205414,115.381638 508.961426,115.299744 508.717407,115.217850 
	C508.995728,114.587990 509.274048,113.958122 509.767517,113.158546 
	C509.982635,112.988831 510.004730,113.004539 510.015076,113.014557 
z"/>
<path fill="#000000" opacity="1.000000" stroke="none" 
	d="
M323.014465,129.985291 
	C323.345612,130.152893 323.666626,130.330719 323.987671,130.508560 
	C323.734314,130.453659 323.480957,130.398758 323.108093,130.180649 
	C322.988556,130.017441 323.004395,129.995514 323.014465,129.985291 
z"/>
<path fill="#000000" opacity="1.000000" stroke="none" 
	d="
M35.292831,72.401909 
	C46.783047,45.783607 66.682846,29.912874 94.558456,24.435802 
	C113.736679,20.667618 130.991638,26.561438 146.745056,37.310898 
	C167.492493,51.468075 177.855591,71.747902 180.599121,96.259346 
	C180.971069,99.582527 180.262405,103.026665 180.011047,107.115135 
	C157.855270,95.373756 134.945633,88.300461 110.608292,81.547363 
	C115.131294,78.757965 118.624237,76.335022 122.362068,74.380363 
	C125.578979,72.698128 126.908981,70.233337 126.935432,66.792694 
	C126.961632,63.383163 125.152222,61.570412 122.194336,59.971622 
	C117.089653,57.212456 111.939049,54.926304 108.869095,48.878147 
	C105.426033,42.094933 97.937920,39.890030 90.638268,39.099911 
	C64.129814,36.230618 48.307564,50.011673 41.030388,73.981377 
	C35.105022,93.498451 36.474529,113.072113 45.838486,131.650955 
	C54.121441,148.085007 67.418594,158.238510 85.032356,163.002228 
	C87.079384,163.555847 89.124184,164.117676 91.135544,164.666306 
	C89.893044,171.470108 89.252403,171.859604 83.512093,169.681549 
	C61.111328,161.181946 44.538582,146.301224 35.183125,124.155602 
	C28.018703,107.196449 28.150644,89.892227 35.292831,72.401909 
z"/>
<path fill="#EEDFBC" opacity="1.000000" stroke="none" 
	d="
M97.983047,155.055023 
	C71.630997,153.282318 50.332554,130.826019 47.799980,102.143822 
	C46.410038,86.402283 53.836807,72.718979 67.915916,65.590401 
	C76.136902,61.427929 84.743416,60.341183 93.462425,64.006882 
	C98.889961,66.288757 102.129662,69.730888 101.710365,76.545624 
	C101.202332,84.802574 101.254807,93.272461 102.516838,101.425438 
	C105.902428,123.297127 117.740105,138.588654 139.818665,145.550095 
	C132.511322,151.069550 124.431320,153.703583 115.069183,154.782440 
	C108.871414,154.699829 103.427231,154.877426 97.983047,155.055023 
M82.664970,65.143929 
	C79.069054,67.098114 76.764481,70.211166 78.213051,74.093521 
	C79.109718,76.496719 81.746140,79.312454 84.068626,79.824455 
	C86.407387,80.340042 90.273621,78.961250 91.720840,77.072105 
	C93.170975,75.179161 93.362900,71.303421 92.487770,68.881630 
	C91.098457,65.036972 87.426445,63.920036 82.664970,65.143929 
z"/>
<path fill="#01B6D8" opacity="1.000000" stroke="none" 
	d="
M118.023788,122.924545 
	C111.457199,113.512421 108.747375,103.304207 108.305779,91.427986 
	C120.118011,95.012268 131.300659,98.405518 142.724152,101.871841 
	C140.810974,114.346191 135.276855,123.607651 124.522415,130.240051 
	C122.359657,127.830330 120.292427,125.527054 118.023788,122.924545 
z"/>
<path fill="#01B6D8" opacity="1.000000" stroke="none" 
	d="
M142.943787,117.759949 
	C144.715515,113.114662 146.331314,108.809731 148.114624,104.058540 
	C153.464447,106.310684 158.901596,108.599594 164.560394,110.981804 
	C163.127884,122.639053 157.106201,131.365234 149.360779,139.110992 
	C148.617493,139.854324 146.817276,140.174881 145.755356,139.859070 
	C140.261459,138.225174 134.848160,136.320358 129.701019,134.607910 
	C134.434052,128.637711 138.610947,123.369011 142.943787,117.759949 
z"/>
<path fill="#E75620" opacity="1.000000" stroke="none" 
	d="
M166.931061,121.762413 
	C167.778397,119.019615 168.507996,116.646233 169.685608,112.815453 
	C178.798050,119.024986 187.442093,124.915337 197.047455,131.460770 
	C183.405579,139.449860 169.922440,141.809677 155.677338,141.168198 
	C159.524384,134.591888 163.168854,128.361862 166.931061,121.762413 
z"/>
<path fill="#E25520" opacity="1.000000" stroke="none" 
	d="
M58.062359,64.060585 
	C64.118378,50.445473 84.363846,43.906059 96.705215,51.586285 
	C100.371307,53.867752 102.705711,56.834099 101.557632,62.108212 
	C86.773720,52.210587 72.574432,55.217163 58.356781,63.945587 
	C58.023956,64.016571 58.062359,64.060585 58.062359,64.060585 
z"/>
<path fill="#000000" opacity="1.000000" stroke="none" 
	d="
M115.545670,172.871918 
	C111.444519,173.309998 107.757591,173.686356 103.845917,174.085678 
	C106.041519,165.466827 106.615784,165.053452 114.523689,164.974106 
	C117.699944,164.942230 120.873627,164.653534 124.784248,164.441925 
	C122.504608,168.779388 120.835144,172.454300 115.545670,172.871918 
z"/>
<path fill="#000000" opacity="1.000000" stroke="none" 
	d="
M143.942322,156.000305 
	C147.964142,153.862549 150.737289,149.328842 157.195160,151.987671 
	C151.284988,156.392807 145.996399,160.334641 140.471329,164.452744 
	C138.545822,159.322266 138.661011,159.083313 143.942322,156.000305 
z"/>
<path fill="#E8E8E8" opacity="1.000000" stroke="none" 
	d="
M108.281784,63.732430 
	C111.027763,64.338318 113.669075,65.339241 117.640259,66.844131 
	C113.920502,69.012779 111.476479,70.437660 108.177101,72.361229 
	C108.177101,69.140625 108.177101,66.634048 108.281784,63.732430 
z"/>
<path fill="#DFD1B1" opacity="1.000000" stroke="none" 
	d="
M98.363571,155.210327 
	C103.427231,154.877426 108.871414,154.699829 114.655273,154.753937 
	C109.578003,155.112320 104.161041,155.238983 98.363571,155.210327 
z"/>
<path fill="#E25520" opacity="1.000000" stroke="none" 
	d="
M58.007256,63.992615 
	C57.903290,63.971954 57.816021,63.975254 57.895554,64.019569 
	C58.062359,64.060585 58.023956,64.016571 58.007256,63.992615 
z"/>
<path fill="#000000" opacity="1.000000" stroke="none" 
	d="
M432.343018,152.049423 
	C431.254059,151.627808 429.639191,150.603165 429.720520,150.443726 
	C430.427338,149.058044 431.357422,147.750824 432.430054,146.618179 
	C432.635101,146.401657 433.758850,147.055191 434.458740,147.307312 
	C433.840332,148.820724 433.221924,150.334122 432.343018,152.049423 
z"/>
<path fill="#20292C" opacity="1.000000" stroke="none" 
	d="
M83.012177,65.024117 
	C87.426445,63.920036 91.098457,65.036972 92.487770,68.881630 
	C93.362900,71.303421 93.170975,75.179161 91.720840,77.072105 
	C90.273621,78.961250 86.407387,80.340042 84.068626,79.824455 
	C81.746140,79.312454 79.109718,76.496719 78.213051,74.093521 
	C76.764481,70.211166 79.069054,67.098114 83.012177,65.024117 
z"/>
</svg>